<?xml version="1.0" encoding="UTF-8" standalone="no"?>
<!-- Created with Inkscape (http://www.inkscape.org/) -->

<svg
   xmlns:dc="http://purl.org/dc/elements/1.1/"
   xmlns:cc="http://creativecommons.org/ns#"
   xmlns:rdf="http://www.w3.org/1999/02/22-rdf-syntax-ns#"
   xmlns:svg="http://www.w3.org/2000/svg"
   xmlns="http://www.w3.org/2000/svg"
   xmlns:sodipodi="http://sodipodi.sourceforge.net/DTD/sodipodi-0.dtd"
   xmlns:inkscape="http://www.inkscape.org/namespaces/inkscape"
   width="65.436813mm"
   height="16.607813mm"
   viewBox="0 0 65.436813 16.607813"
   version="1.1"
   id="svg8"
   inkscape:version="0.91 r13725"
   sodipodi:docname="advanced.svg">
  <defs
     id="defs2">
    <inkscape:path-effect
       effect="bspline"
       id="path-effect3721"
       is_visible="true"
       weight="33.333333"
       steps="2"
       helper_size="0"
       apply_no_weight="true"
       apply_with_weight="true"
       only_selected="false" />
  </defs>
  <sodipodi:namedview
     id="base"
     pagecolor="#ffffff"
     bordercolor="#666666"
     borderopacity="1.0"
     inkscape:pageopacity="0.0"
     inkscape:pageshadow="2"
     inkscape:zoom="2.8"
     inkscape:cx="105.79302"
     inkscape:cy="-38.161188"
     inkscape:document-units="mm"
     inkscape:current-layer="layer1"
     showgrid="false"
     inkscape:window-width="1920"
     inkscape:window-height="1023"
     inkscape:window-x="0"
     inkscape:window-y="27"
     inkscape:window-maximized="1"
     fit-margin-top="0"
     fit-margin-left="0"
     fit-margin-right="0"
     fit-margin-bottom="0" />
  <metadata
     id="metadata5">
    <rdf:RDF>
      <cc:Work
         rdf:about="">
        <dc:format>image/svg+xml</dc:format>
        <dc:type
           rdf:resource="http://purl.org/dc/dcmitype/StillImage" />
        <dc:title></dc:title>
      </cc:Work>
    </rdf:RDF>
  </metadata>
  <g
     inkscape:label="Layer 1"
     inkscape:groupmode="layer"
     id="layer1"
     transform="translate(-42.105646,-86.207144)">
    <g
       style="font-style:normal;font-variant:normal;font-weight:normal;font-stretch:normal;font-size:10.58333302px;line-height:1.25;font-family:AnjaliOldLipi;-inkscape-font-specification:AnjaliOldLipi;letter-spacing:0px;word-spacing:0px;fill:#000000;fill-opacity:1;stroke:none;stroke-width:0.26458332"
       id="text3715">
      <path
         d="m 49.163477,91.497587 -1.415934,3.839559 2.837036,0 -1.421102,-3.839559 z m -0.589111,-1.028361 1.18339,0 2.940389,7.715291 -1.085205,0 -0.702799,-1.979207 -3.477824,0 -0.702799,1.979207 -1.100708,0 2.945556,-7.715291 z"
         style="font-style:normal;font-variant:normal;font-weight:normal;font-stretch:normal;line-height:1.25;font-family:LKLUG;-inkscape-font-specification:LKLUG;letter-spacing:0px;fill:#1793d6;fill-opacity:1;stroke-width:0.26458332"
         id="path3366" />
      <path
         d="m 54.863388,91.327055 0,5.999633 1.260905,0 q 1.596801,0 2.335774,-0.72347 0.744141,-0.72347 0.744141,-2.284098 0,-1.550293 -0.744141,-2.268595 -0.738973,-0.72347 -2.335774,-0.72347 l -1.260905,0 z m -1.043864,-0.857829 2.144572,0 q 2.242757,0 3.291788,0.935343 1.049032,0.930176 1.049032,2.914551 0,1.99471 -1.054199,2.930054 -1.0542,0.935343 -3.286621,0.935343 l -2.144572,0 0,-7.715291 z"
         style="font-style:normal;font-variant:normal;font-weight:normal;font-stretch:normal;line-height:1.25;font-family:LKLUG;-inkscape-font-specification:LKLUG;letter-spacing:0px;fill:#1793d6;fill-opacity:1;stroke-width:0.26458332"
         id="path3368" />
      <path
         d="m 63.767237,98.184517 -2.945556,-7.715291 1.090372,0 2.444296,6.495727 2.449462,-6.495727 1.085205,0 -2.940388,7.715291 -1.183391,0 z"
         style="font-style:normal;font-variant:normal;font-weight:normal;font-stretch:normal;line-height:1.25;font-family:LKLUG;-inkscape-font-specification:LKLUG;letter-spacing:0px;fill:#1793d6;fill-opacity:1;stroke-width:0.26458332"
         id="path3370" />
      <path
         d="m 70.908919,91.497587 -1.415934,3.839559 2.837036,0 -1.421102,-3.839559 z m -0.589111,-1.028361 1.18339,0 2.940389,7.715291 -1.085205,0 -0.7028,-1.979207 -3.477824,0 -0.702799,1.979207 -1.100708,0 2.945557,-7.715291 z"
         style="font-style:normal;font-variant:normal;font-weight:normal;font-stretch:normal;line-height:1.25;font-family:LKLUG;-inkscape-font-specification:LKLUG;letter-spacing:0px;fill:#1793d6;fill-opacity:1;stroke-width:0.26458332"
         id="path3372" />
      <path
         d="m 75.564966,90.469226 1.405599,0 3.42098,6.454386 0,-6.454386 1.012858,0 0,7.715291 -1.405599,0 -3.42098,-6.454386 0,6.454386 -1.012858,0 0,-7.715291 z"
         style="font-style:normal;font-variant:normal;font-weight:normal;font-stretch:normal;line-height:1.25;font-family:LKLUG;-inkscape-font-specification:LKLUG;letter-spacing:0px;fill:#1793d6;fill-opacity:1;stroke-width:0.26458332"
         id="path3374" />
      <path
         d="m 89.259221,91.063505 0,1.100708 q -0.527099,-0.490926 -1.126546,-0.733806 -0.594279,-0.242879 -1.266073,-0.242879 -1.322916,0 -2.025716,0.81132 -0.702799,0.806152 -0.702799,2.335775 0,1.524455 0.702799,2.335774 0.7028,0.806153 2.025716,0.806153 0.671794,0 1.266073,-0.242879 0.599447,-0.24288 1.126546,-0.733806 l 0,1.090373 q -0.54777,0.37207 -1.16272,0.558105 -0.609781,0.186036 -1.29191,0.186036 -1.751831,0 -2.759522,-1.069703 -1.00769,-1.074869 -1.00769,-2.930053 0,-1.860352 1.00769,-2.930054 1.007691,-1.07487 2.759522,-1.07487 0.692464,0 1.302246,0.186036 0.614949,0.180867 1.152384,0.54777 z"
         style="font-style:normal;font-variant:normal;font-weight:normal;font-stretch:normal;line-height:1.25;font-family:LKLUG;-inkscape-font-specification:LKLUG;letter-spacing:0px;fill:#1793d6;fill-opacity:1;stroke-width:0.26458332"
         id="path3376" />
      <path
         d="m 90.881859,90.469226 4.878255,0 0,0.878499 -3.834391,0 0,2.284098 3.674194,0 0,0.8785 -3.674194,0 0,2.795695 3.927408,0 0,0.878499 -4.971272,0 0,-7.715291 z"
         style="font-style:normal;font-variant:normal;font-weight:normal;font-stretch:normal;line-height:1.25;font-family:LKLUG;-inkscape-font-specification:LKLUG;letter-spacing:0px;fill:#1793d6;fill-opacity:1;stroke-width:0.26458332"
         id="path3378" />
      <path
         d="m 98.622988,91.327055 0,5.999633 1.260905,0 q 1.596797,0 2.335777,-0.72347 0.74414,-0.72347 0.74414,-2.284098 0,-1.550293 -0.74414,-2.268595 -0.73898,-0.72347 -2.335777,-0.72347 l -1.260905,0 z m -1.043864,-0.857829 2.144572,0 q 2.242754,0 3.291784,0.935343 1.04904,0.930176 1.04904,2.914551 0,1.99471 -1.0542,2.930054 -1.0542,0.935343 -3.286624,0.935343 l -2.144572,0 0,-7.715291 z"
         style="font-style:normal;font-variant:normal;font-weight:normal;font-stretch:normal;line-height:1.25;font-family:LKLUG;-inkscape-font-specification:LKLUG;letter-spacing:0px;fill:#1793d6;fill-opacity:1;stroke-width:0.26458332"
         id="path3380" />
    </g>
    <rect
       style="opacity:1;fill:none;fill-opacity:1;stroke:#1793d6;stroke-width:1.75957072;stroke-miterlimit:4;stroke-dasharray:none;stroke-opacity:1;paint-order:stroke fill markers"
       id="rect3723"
       width="63.677242"
       height="14.848243"
       x="42.985432"
       y="87.086929"
       ry="4.6955538" />
  </g>
</svg>
